<svg height="448pt" viewBox="0 -12 448 448" width="448pt" xmlns="http://www.w3.org/2000/svg"><path d="m312.105469 344c-7.5625.070312-14.71875-3.425781-19.304688-9.441406-1.539062.183594-3.09375.210937-4.640625.089844v89.351562l19.199219-14.398438c2.84375-2.136718 6.757813-2.136718 9.601563 0l19.199218 14.398438v-89.351562c-1.597656.132812-3.207031.101562-4.800781-.089844-4.578125 6-11.710937 9.496094-19.253906 9.441406zm0 0"/><path d="m0 360c0 13.253906 10.746094 24 24 24h248.191406v-32h-272.191406zm0 0"/><path d="m346.480469 280.160156c-2.132813-.757812-3.847657-2.386718-4.710938-4.476562-.867187-2.09375-.808593-4.453125.167969-6.5 1.511719-3.171875.871094-6.953125-1.605469-9.445313-2.480469-2.492187-6.257812-3.15625-9.4375-1.660156-2.042969.976563-4.40625 1.039063-6.5.175781-2.097656-.867187-3.722656-2.582031-4.484375-4.71875-1.167968-3.3125-4.300781-5.53125-7.8125-5.53125-3.515625 0-6.648437 2.21875-7.816406 5.53125-.757812 2.136719-2.386719 3.851563-4.480469 4.71875-2.097656.863282-4.460937.800782-6.503906-.175781-3.183594-1.5-6.964844-.832031-9.441406 1.660156-2.480469 2.496094-3.121094 6.28125-1.597657 9.453125.96875 2.042969 1.03125 4.402344.164063 6.492188-.863281 2.089844-2.570313 3.714844-4.703125 4.476562-3.316406 1.179688-5.535156 4.320313-5.535156 7.839844s2.21875 6.660156 5.535156 7.839844c2.132812.761718 3.84375 2.386718 4.707031 4.480468.867188 2.089844.804688 4.453126-.167969 6.496094-1.515624 3.171875-.875 6.953125 1.605469 9.445313 2.476563 2.492187 6.253907 3.15625 9.433594 1.660156 2.042969-.976563 4.40625-1.039063 6.503906-.175781 2.09375.867187 3.722657 2.582031 4.480469 4.71875 1.167969 3.3125 4.300781 5.53125 7.816406 5.53125 3.511719 0 6.644532-2.21875 7.8125-5.53125.761719-2.136719 2.386719-3.851563 4.484375-4.71875 2.09375-.863282 4.457031-.800782 6.5.175781 3.179688 1.496094 6.957031.832031 9.4375-1.660156 2.476563-2.492188 3.117188-6.273438 1.605469-9.445313-.976562-2.046875-1.035156-4.40625-.167969-6.5.863281-2.089844 2.578125-3.71875 4.710938-4.476562 3.308593-1.1875 5.519531-4.324219 5.519531-7.839844s-2.210938-6.652344-5.519531-7.839844zm0 0"/><path d="m64 24v312h208.191406v-8.886719c-5.105468-5.261719-7.53125-12.5625-6.589844-19.832031-5.949218-4.628906-9.425781-11.746094-9.425781-19.28125s3.476563-14.652344 9.425781-19.28125c-.945312-7.46875 1.613282-14.957031 6.929688-20.289062 5.316406-5.332032 12.796875-7.910157 20.269531-6.988282 4.617188-5.957031 11.726563-9.441406 19.261719-9.441406s14.648438 3.484375 19.265625 9.441406c7.472656-.925781 14.953125 1.652344 20.273437 6.984375 5.316407 5.335938 7.871094 12.824219 6.925782 20.292969 5.949218 4.628906 9.425781 11.746094 9.425781 19.28125s-3.476563 14.652344-9.425781 19.28125c.925781 7.164062-1.425782 14.363281-6.398438 19.597656v55.648438c2.519532.933594 5.183594 1.429687 7.871094 1.472656 13.253906 0 24-10.746094 24-24v-336c.019531-2.492188.269531-4.976562.753906-7.425781.140625-.757813.375-1.476563.558594-2.222657.394531-1.628906.894531-3.230468 1.488281-4.800781.3125-.796875.648438-1.550781 1.007813-2.320312.683594-1.457031 1.449218-2.871094 2.304687-4.238281.414063-.671876.796875-1.351563 1.269531-1.992188.226563-.328125.394532-.6875.632813-1h-304.015625c-13.253906 0-24 10.746094-24 24zm280 168h-136v-16h136zm0-40h-184v-16h184zm-96-104h32v16h-32zm-80 0h64v16h-64zm-24 40h160v16h-160zm-40 48h40v16h-40zm0 40h88v16h-88zm0 40h160v16h-160zm0 40h136v16h-136zm0 0"/><path d="m424 0c-13.253906 0-24 10.746094-24 24v8h48v-8c0-13.253906-10.746094-24-24-24zm0 0"/></svg>